<?xml version="1.0" encoding="UTF-8"?>
<svg id="Layer_2" data-name="Layer 2" xmlns="http://www.w3.org/2000/svg" viewBox="0 0 49.52 49.52">
  <defs>
    <style>
      .cls-1 {
        fill: #b3b3b3;
      }
    </style>
  </defs>
  <g id="Layer_1-2" data-name="Layer 1">
    <g>
      <path class="cls-1" d="m44.5,49.5c-1.28,0-2.56-.49-3.54-1.46L1.46,8.54C-.49,6.58-.49,3.42,1.46,1.46,3.42-.49,6.58-.49,8.54,1.46l39.5,39.5c1.95,1.95,1.95,5.12,0,7.07-.98.98-2.26,1.46-3.54,1.46Z"/>
      <path class="cls-1" d="m5.02,49.52c-1.28,0-2.56-.49-3.54-1.46-1.95-1.95-1.95-5.12,0-7.07L40.98,1.48c1.95-1.95,5.12-1.95,7.07,0,1.95,1.95,1.95,5.12,0,7.07L8.55,48.05c-.98.98-2.26,1.46-3.54,1.46Z"/>
    </g>
  </g>
</svg>