<?xml version="1.0" encoding="UTF-8"?>
<svg id="Layer_2" data-name="Layer 2" xmlns="http://www.w3.org/2000/svg" viewBox="0 0 49.44 49.44">
  <g id="Layer_1-2" data-name="Layer 1">
    <g>
      <path d="m45.44,49.44c-1.02,0-2.05-.39-2.83-1.17L1.17,6.83C-.39,5.27-.39,2.73,1.17,1.17,2.73-.39,5.27-.39,6.83,1.17l41.44,41.44c1.56,1.56,1.56,4.09,0,5.66-.78.78-1.8,1.17-2.83,1.17Z"/>
      <path d="m4,49.44c-1.02,0-2.05-.39-2.83-1.17-1.56-1.56-1.56-4.09,0-5.66L42.61,1.17c1.56-1.56,4.09-1.56,5.66,0,1.56,1.56,1.56,4.09,0,5.66L6.83,48.27c-.78.78-1.81,1.17-2.83,1.17Z"/>
    </g>
  </g>
</svg>