<?xml version="1.0" encoding="UTF-8"?>
<svg id="Layer_2" data-name="Layer 2" xmlns="http://www.w3.org/2000/svg" viewBox="0 0 50 50">
  <g id="Layer_1-2" data-name="Layer 1">
    <g>
      <path d="m41.49,50H8.51c-4.69,0-8.51-3.82-8.51-8.51V8.51C0,3.82,3.82,0,8.51,0h16.49c1.66,0,3.01,1.35,3.01,3.01s-1.35,3.01-3.01,3.01H8.51c-1.37,0-2.49,1.12-2.49,2.49v32.97c0,1.37,1.12,2.49,2.49,2.49h32.97c1.37,0,2.49-1.12,2.49-2.49v-16.49c0-1.67,1.35-3.01,3.01-3.01s3.01,1.35,3.01,3.01v16.48c0,4.7-3.82,8.52-8.51,8.52h0Z"/>
      <path d="m19.9,33.11c-.77,0-1.54-.3-2.13-.88-1.18-1.18-1.18-3.08,0-4.26L43.4,2.34c1.18-1.18,3.08-1.18,4.26,0s1.18,3.08,0,4.26l-25.63,25.63c-.59.59-1.36.88-2.13.88Z"/>
    </g>
  </g>
</svg>