<?xml version="1.0" encoding="UTF-8"?>
<svg id="Layer_2" data-name="Layer 2" xmlns="http://www.w3.org/2000/svg" viewBox="0 0 44.12 49.38">
  <g id="Layer_1-2" data-name="Layer 1">
    <g>
      <path d="m22.06,6c5.86,0,10.63,4.77,10.63,10.63s-4.77,10.63-10.63,10.63-10.63-4.77-10.63-10.63,4.77-10.63,10.63-10.63m0-6C12.88,0,5.43,7.44,5.43,16.63s7.44,16.63,16.63,16.63,16.63-7.44,16.63-16.63S31.24,0,22.06,0h0Z"/>
      <path d="m44.12,49.38h-6c0-8.86-7.2-16.06-16.06-16.06s-16.06,7.2-16.06,16.06H0c0-12.16,9.9-22.06,22.06-22.06s22.06,9.9,22.06,22.06Z"/>
    </g>
  </g>
</svg>